<?xml version="1.0" encoding="UTF-8" standalone="no"?>
<!-- Created with Inkscape (http://www.inkscape.org/) -->

<svg
   width="210mm"
   height="60.400002mm"
   viewBox="0 0 210 60.400016"
   version="1.1"
   id="svg5"
   inkscape:version="1.1 (c68e22c387, 2021-05-23)"
   sodipodi:docname="waveDOWN.svg"
   xmlns:inkscape="http://www.inkscape.org/namespaces/inkscape"
   xmlns:sodipodi="http://sodipodi.sourceforge.net/DTD/sodipodi-0.dtd"
   xmlns="http://www.w3.org/2000/svg"
   xmlns:svg="http://www.w3.org/2000/svg">
  <sodipodi:namedview
     id="namedview7"
     pagecolor="#ffffff"
     bordercolor="#666666"
     borderopacity="1.0"
     inkscape:pageshadow="2"
     inkscape:pageopacity="0.0"
     inkscape:pagecheckerboard="0"
     inkscape:document-units="mm"
     showgrid="false"
     height="46.4mm"
     units="mm"
     inkscape:zoom="0.70710678"
     inkscape:cx="149.19953"
     inkscape:cy="173.24116"
     inkscape:window-width="1366"
     inkscape:window-height="745"
     inkscape:window-x="-8"
     inkscape:window-y="-8"
     inkscape:window-maximized="1"
     inkscape:current-layer="layer1" />
  <defs
     id="defs2" />
  <g
     inkscape:label="Capa 1"
     inkscape:groupmode="layer"
     id="layer1">
    <path
       style="fill:#f3f3f3;stroke-width:0.152691"
       d="M 0.13395537,55.520615 V 50.078409 L 1.1452655,49.822858 c 3.8824211,-0.981069 11.2359655,-2.141242 17.7789055,-2.804989 6.95178,-0.705227 11.49751,-0.943938 19.63699,-1.031202 10.61732,-0.113831 19.50471,0.312784 30.3838,1.458491 9.41355,0.991369 13.51537,1.725824 24.95208,4.467818 7.077489,1.696844 10.134019,2.324087 13.866299,2.845551 6.13364,0.856972 13.74233,1.207204 21.60058,0.994286 10.18191,-0.275876 15.09716,-0.719559 28.88959,-2.607766 12.8129,-1.754105 19.18362,-2.369961 28.18529,-2.724654 9.01084,-0.355057 17.51939,0.09008 22.66829,1.185935 l 1.33429,0.249328 c -5.4e-4,3.297802 -8.5e-4,5.717392 -0.001,9.107161 H 105.28709 0.13395537 Z"
       id="path3559"
       sodipodi:nodetypes="ccssssssssscccccc" />
  </g>
</svg>
