<svg id="Capa_1" data-name="Capa 1" xmlns="http://www.w3.org/2000/svg" viewBox="0 0 517.48 517.48"><defs><style>.cls-1{fill:#fefbfc;}</style></defs><path class="cls-1" d="M263.32,405.84c-84.84,0-153.87-69-153.87-153.86s69-153.86,153.87-153.86,153.86,69,153.86,153.86-69,153.86-153.86,153.86m0-291.06c-75.66,0-137.21,61.54-137.21,137.2s61.55,137.19,137.21,137.19S400.52,327.63,400.52,252,339,114.78,263.32,114.78"/><path class="cls-1" d="M263.32,361.38a109.41,109.41,0,1,1,0-218.81v16.67A92.74,92.74,0,1,0,356.05,252h16.67a109.52,109.52,0,0,1-109.4,109.41"/><polygon class="cls-1" points="471.15 371.56 454.48 371.56 454.48 147.1 263.32 261.7 72.16 147.1 72.16 371.56 55.49 371.56 55.49 117.68 263.32 242.26 471.15 117.68 471.15 371.56"/></svg>