<?xml version="1.0" standalone="no"?>
<!DOCTYPE svg PUBLIC "-//W3C//DTD SVG 20010904//EN"
 "http://www.w3.org/TR/2001/REC-SVG-20010904/DTD/svg10.dtd">
<svg version="1.0" xmlns="http://www.w3.org/2000/svg"
 width="180.000000pt" height="180.000000pt" viewBox="0 0 180.000000 180.000000"
 preserveAspectRatio="xMidYMid meet">
<metadata>
Created by potrace 1.11, written by Peter Selinger 2001-2013
</metadata>
<g transform="translate(0.000000,180.000000) scale(0.100000,-0.100000)"
fill="#000000" stroke="none">
<path d="M533 1561 c5 -21 -1 -23 -103 -33 l-25 -3 -3 -300 c-1 -165 0 -310 3
-322 7 -29 28 -29 47 -1 13 19 19 21 49 12 22 -6 35 -17 37 -29 7 -43 10 -46
37 -33 22 10 29 8 51 -13 24 -23 25 -32 9 -71 -6 -15 -2 -18 20 -18 15 0 34
-8 41 -17 11 -15 13 47 11 387 l-2 405 -35 3 c-78 5 -101 13 -98 30 2 11 -5
18 -21 20 -20 3 -23 0 -18 -17z"/>
<path d="M960 1309 l0 -270 29 20 c39 28 41 27 41 -14 0 -19 3 -35 8 -35 4 0
32 16 62 35 l55 34 3 -34 c4 -41 10 -43 61 -11 37 24 38 25 44 102 4 42 7 160
7 261 l0 183 -155 0 -155 0 0 -271z m100 201 c0 -16 -7 -20 -35 -20 -28 0 -35
4 -35 20 0 16 7 20 35 20 28 0 35 -4 35 -20z m88 3 c-2 -12 -14 -19 -36 -21
-27 -3 -32 0 -32 17 0 17 6 21 36 21 28 0 35 -3 32 -17z m82 -3 c0 -16 -7 -20
-30 -20 -23 0 -30 4 -30 20 0 16 7 20 30 20 23 0 30 -4 30 -20z m-172 -77 c3
-20 -1 -23 -32 -23 -28 0 -36 4 -36 18 0 26 10 33 40 30 17 -2 26 -10 28 -25z
m87 2 c0 -15 -8 -21 -32 -23 -30 -3 -33 -1 -33 23 0 24 3 26 33 23 24 -2 32
-8 32 -23z m85 0 c0 -21 -5 -25 -30 -25 -25 0 -30 4 -30 25 0 21 5 25 30 25
25 0 30 -4 30 -25z m-172 -77 c-2 -18 -10 -23 -33 -23 -23 0 -31 5 -33 23 -3
19 1 22 33 22 32 0 36 -3 33 -22z m87 -3 c0 -16 -7 -20 -30 -20 -24 0 -31 5
-33 23 -3 21 0 23 30 20 25 -2 33 -8 33 -23z m85 0 c0 -21 -5 -25 -30 -25 -25
0 -30 4 -30 25 0 21 5 25 30 25 25 0 30 -4 30 -25z m-170 -75 c0 -16 -7 -20
-35 -20 -28 0 -35 4 -35 20 0 16 7 20 35 20 28 0 35 -4 35 -20z m90 0 c0 -16
-7 -20 -35 -20 -28 0 -35 4 -35 20 0 16 7 20 35 20 28 0 35 -4 35 -20z m80 0
c0 -16 -7 -20 -35 -20 -28 0 -35 4 -35 20 0 16 7 20 35 20 28 0 35 -4 35 -20z
m-170 -80 c0 -16 -7 -20 -35 -20 -28 0 -35 4 -35 20 0 16 7 20 35 20 28 0 35
-4 35 -20z m90 0 c0 -16 -7 -20 -35 -20 -28 0 -35 4 -35 20 0 16 7 20 35 20
28 0 35 -4 35 -20z m80 0 c0 -16 -7 -20 -35 -20 -28 0 -35 4 -35 20 0 16 7 20
35 20 28 0 35 -4 35 -20z m-2 -77 c3 -20 -1 -23 -27 -23 -33 0 -46 13 -37 36
9 25 60 14 64 -13z m-168 -3 c0 -16 -7 -20 -35 -20 -28 0 -35 4 -35 20 0 16 7
20 35 20 28 0 35 -4 35 -20z m90 0 c0 -16 -7 -20 -35 -20 -28 0 -35 4 -35 20
0 16 7 20 35 20 28 0 35 -4 35 -20z"/>
<path d="M1296 1378 c-14 -131 -18 -298 -7 -298 6 0 11 -16 11 -35 0 -19 3
-35 6 -35 4 0 22 10 42 22 l35 21 -7 121 c-3 67 -9 151 -12 189 -6 65 -7 67
-34 67 -26 0 -28 -3 -34 -52z"/>
<path d="M765 1311 c3 -5 -5 -11 -17 -13 -23 -3 -23 -5 -26 -161 l-3 -158 51
28 50 28 0 133 c0 125 -1 132 -20 132 -11 0 -20 5 -20 10 0 6 -5 10 -11 10 -5
0 -8 -4 -4 -9z"/>
<path d="M869 1193 c0 -5 -1 -39 -2 -77 l-2 -69 -72 -45 -73 -45 0 -246 c0
-267 5 -294 45 -247 18 23 23 24 55 13 27 -9 36 -18 38 -40 3 -20 8 -27 20
-25 13 3 16 12 14 45 -3 34 0 42 17 48 27 8 27 32 1 40 -37 12 -17 95 23 95
32 0 38 8 25 36 -10 22 -8 28 14 50 21 22 29 24 46 15 33 -17 42 -13 42 19 0
24 5 31 28 36 51 11 47 12 -30 13 -45 1 -78 5 -78 11 0 6 37 10 90 10 53 0 90
-4 90 -10 0 -5 -4 -10 -10 -10 -6 0 -5 -10 2 -25 14 -32 29 -28 48 13 l15 32
88 0 c51 0 87 -4 87 -10 0 -6 -36 -10 -87 -11 -82 0 -85 -1 -53 -12 27 -9 36
-18 38 -39 4 -30 13 -34 41 -18 14 7 24 3 45 -19 23 -24 26 -32 17 -49 -16
-30 -14 -42 9 -42 19 0 20 7 20 211 l0 211 -37 -23 c-21 -12 -47 -29 -58 -36
-29 -20 -35 -16 -35 22 0 19 -2 35 -4 35 -3 0 -31 -16 -63 -35 -32 -19 -61
-35 -65 -35 -4 0 -8 16 -10 35 l-3 35 -58 -35 c-32 -19 -60 -35 -63 -35 -2 0
-4 16 -4 35 0 19 -3 35 -6 35 -4 0 -29 -14 -56 -30 l-50 -31 4 106 c3 103 3
105 -19 105 -13 0 -23 -3 -24 -7z m61 -303 c0 -6 -37 -10 -90 -10 -53 0 -90 4
-90 10 0 6 37 10 90 10 53 0 90 -4 90 -10z m230 0 c0 -6 -37 -10 -90 -10 -53
0 -90 4 -90 10 0 6 37 10 90 10 53 0 90 -4 90 -10z m230 0 c0 -6 -37 -10 -90
-10 -53 0 -90 4 -90 10 0 6 37 10 90 10 53 0 90 -4 90 -10z m-460 -30 c0 -6
-37 -10 -91 -10 -57 0 -88 4 -84 10 3 6 44 10 91 10 49 0 84 -4 84 -10z m230
0 c0 -6 -37 -10 -91 -10 -57 0 -88 4 -84 10 3 6 44 10 91 10 49 0 84 -4 84
-10z m230 0 c0 -6 -37 -10 -91 -10 -57 0 -88 4 -84 10 3 6 44 10 91 10 49 0
84 -4 84 -10z m-460 -40 c0 -6 -35 -10 -84 -10 -47 0 -88 5 -91 10 -4 6 27 10
84 10 54 0 91 -4 91 -10z"/>
<path d="M460 880 c-12 -22 -55 -27 -63 -7 -3 6 -6 -17 -6 -53 l-1 -65 39 -1
c80 -2 135 -76 111 -149 -14 -42 -63 -85 -96 -85 -13 0 -24 -3 -24 -7 0 -5 15
-35 34 -68 35 -64 59 -77 64 -33 4 31 35 46 58 27 22 -18 57 16 43 43 -16 30
-2 58 31 58 37 0 50 38 20 59 -26 17 -26 55 0 72 30 21 17 59 -20 59 -32 0
-49 32 -30 55 8 10 8 19 0 34 -12 24 -23 26 -49 9 -25 -15 -51 4 -51 37 0 21
-17 35 -40 35 -5 0 -14 -9 -20 -20z"/>
<path d="M1103 779 c-15 -5 -23 -17 -23 -33 0 -29 -29 -42 -58 -27 -29 15 -58
-19 -42 -49 14 -27 -2 -50 -35 -50 -37 0 -49 -54 -15 -65 26 -8 26 -46 -1 -63
-30 -19 -22 -56 14 -60 36 -4 51 -32 32 -59 -13 -18 -12 -22 4 -38 15 -13 24
-14 40 -5 29 15 59 -3 63 -37 4 -35 34 -43 54 -14 17 23 44 27 62 9 22 -22
117 74 167 171 9 18 25 59 35 90 l18 56 -24 3 c-28 4 -39 33 -24 62 9 16 8 25
-1 36 -13 16 -45 19 -54 4 -11 -18 -43 8 -47 37 -4 36 -43 44 -65 14 -14 -20
-53 -30 -53 -13 0 23 -26 40 -47 31z m127 -154 c40 -21 60 -53 60 -98 0 -52
-22 -91 -64 -111 -43 -20 -59 -20 -102 0 -41 20 -64 59 -64 109 0 47 14 71 53
95 38 24 78 25 117 5z"/>
<path d="M681 651 c-17 -11 -7 -45 12 -39 13 5 23 48 10 48 -4 0 -14 -4 -22
-9z"/>
<path d="M668 463 c-12 -3 -18 -14 -18 -33 0 -34 -28 -47 -61 -30 -30 16 -54
-8 -43 -41 4 -13 7 -29 6 -35 -1 -6 16 -24 38 -39 l41 -28 28 27 c73 70 201
24 201 -71 0 -33 0 -33 50 -33 43 0 50 3 50 20 0 10 9 24 20 30 11 6 20 21 20
35 0 18 -6 24 -26 27 -37 4 -53 31 -36 59 11 18 11 24 -3 39 -14 15 -21 17
-40 8 -33 -15 -55 -4 -55 27 0 37 -39 51 -63 22 -25 -29 -45 -30 -63 -1 -9 13
-19 23 -23 23 -3 -1 -14 -3 -23 -6z"/>
</g>
</svg>
